<?xml version="1.0" standalone="no"?>
<!DOCTYPE svg PUBLIC "-//W3C//DTD SVG 20010904//EN"
 "http://www.w3.org/TR/2001/REC-SVG-20010904/DTD/svg10.dtd">
<svg version="1.0" xmlns="http://www.w3.org/2000/svg"
 width="87.000000pt" height="58.000000pt" viewBox="0 0 87.000000 58.000000"
 preserveAspectRatio="xMidYMid meet">

<g transform="translate(0.000000,58.000000) scale(0.100000,-0.100000)"
fill="#000000" stroke="none">
<path d="M307 494 c-4 -4 -7 -16 -7 -26 0 -24 -26 -52 -40 -43 -6 4 -17 1 -25
-5 -17 -14 -20 -47 -5 -52 16 -5 0 -46 -21 -51 -26 -7 -25 -47 1 -54 25 -7 34
-36 19 -62 -10 -15 -10 -23 1 -36 7 -9 19 -14 26 -11 16 6 41 -23 46 -54 3
-23 6 -25 56 -22 41 2 52 -1 52 -12 0 -22 32 -36 53 -25 9 6 17 17 17 25 0 11
12 14 52 12 46 -3 53 0 56 17 l4 20 -15 -20 c-14 -17 -19 -18 -36 -7 -31 18
-49 15 -67 -13 -19 -30 -44 -33 -51 -6 -3 11 -11 22 -19 25 -31 12 -1 34 52
38 95 8 149 65 149 159 -1 38 3 55 9 49 15 -15 36 -12 36 5 0 8 5 24 12 34 14
23 -6 55 -29 46 -19 -7 -43 18 -43 44 0 27 -15 34 -58 26 -20 -4 -31 -10 -24
-12 31 -11 7 -23 -47 -23 -68 0 -106 -12 -139 -43 -34 -31 -65 -96 -54 -110 5
-7 12 -32 16 -55 6 -38 4 -44 -14 -49 -11 -3 -20 -9 -20 -14 0 -12 17 -11 25
1 3 5 14 10 23 10 15 -1 15 -2 -2 -15 -27 -21 -56 -19 -56 3 0 10 5 23 10 28
14 14 3 42 -21 55 -25 13 -24 36 0 44 11 3 22 19 26 35 3 15 22 49 41 74 26
32 33 49 27 61 -5 8 -12 12 -16 9z m260 -10 c-3 -3 -12 -4 -19 -1 -8 3 -5 6 6
6 11 1 17 -2 13 -5z m-42 -109 c0 -6 -34 -11 -77 -13 -66 -2 -78 0 -78 13 0
13 12 15 78 13 43 -2 77 -7 77 -13z m-193 -37 c-7 -7 -12 -8 -12 -2 0 6 3 14
7 17 3 4 9 5 12 2 2 -3 -1 -11 -7 -17z m238 2 c0 -5 -4 -10 -10 -10 -5 0 -10
5 -10 10 0 6 5 10 10 10 6 0 10 -4 10 -10z m-42 -77 l-3 -78 -80 0 -80 0 -3
78 -3 77 86 0 86 0 -3 -77z m-192 22 c-1 -14 -5 -26 -10 -28 -11 -2 -18 32
-11 51 8 21 22 5 21 -23z m244 7 c0 -4 -9 -13 -20 -20 -19 -12 -20 -11 -8 8
13 20 28 27 28 12z m-18 -74 c-7 -7 -12 -8 -12 -2 0 14 12 26 19 19 2 -3 -1
-11 -7 -17z m-222 2 c0 -5 -2 -10 -4 -10 -3 0 -8 5 -11 10 -3 6 -1 10 4 10 6
0 11 -4 11 -10z"/>
<path d="M385 320 c-4 -6 -3 -16 3 -22 6 -6 12 -6 17 2 4 6 3 16 -3 22 -6 6
-12 6 -17 -2z"/>
<path d="M381 263 c0 -13 2 -14 6 -4 5 11 7 11 14 0 7 -11 9 -10 9 4 0 9 -7
17 -15 17 -8 0 -15 -8 -14 -17z"/>
<path d="M486 273 c-3 -3 -6 -21 -6 -40 0 -23 5 -33 15 -33 10 0 15 10 15 34
0 34 -11 52 -24 39z"/>
<path d="M380 215 c0 -8 7 -15 15 -15 8 0 15 7 15 15 0 8 -7 15 -15 15 -8 0
-15 -7 -15 -15z"/>
<path d="M430 215 c0 -8 7 -15 15 -15 8 0 15 7 15 15 0 8 -7 15 -15 15 -8 0
-15 -7 -15 -15z"/>
<path d="M378 483 c7 -3 16 -2 19 1 4 3 -2 6 -13 5 -11 0 -14 -3 -6 -6z"/>
<path d="M680 303 c0 -12 -9 -28 -20 -36 -16 -11 -31 -37 -40 -72 -2 -5 -9
-14 -15 -20 -7 -5 -16 -21 -20 -35 l-7 -25 23 21 c13 12 29 20 35 17 6 -2 17
4 24 12 11 13 11 21 2 36 -18 28 -15 41 14 64 23 18 25 25 16 41 -11 18 -11
18 -12 -3z"/>
</g>
</svg>
